<?xml version="1.0" encoding="UTF-8" standalone="no"?>

<svg
  width="32px"
  height="32px"
  viewBox="0 0 200 200"
  version="1.1"
  xml:space="preserve"
  xmlns="http://www.w3.org/2000/svg"
  xmlns:svg="http://www.w3.org/2000/svg">

  <style>
    .favicon { fill: #ffffff; }

    @media (prefers-color-scheme: light) {
      .favicon { fill: #000000; }
    }
  </style>
     
  <g transform="translate(210.21886,-221.29679)">
    
  <g transform="matrix(1.5933031,0,0,1.5933031,-335.70461,146.79616)">
    <path class="favicon" style="display:inline;stroke-width:4.01294"
      d="m 141.51115,46.758602 c -23.31394,0 -43.982938,11.474833 -49.79106,31.697545 l 68.04916,-15.271912 13.53898,-7.95221 C 164.445,49.701066 153.31729,46.758602 141.51115,46.758602 Z m 46.50311,23.711632 -23.30406,5.23015 -69.698244,40.935946 v 7.7e-4 c 0.25649,0.53279 0.524916,1.0601 0.806507,1.58246 -0.186069,1.1467 -0.402927,2.42543 -0.577651,3.3052 -2.00082,8.08601 -2.840968,22.00492 4.589026,26.54261 4.690222,2.86443 9.340312,1.47355 14.371352,-0.0431 l 1.55031,14.27651 c 0,0 3.54666,2.26571 7.86677,4.57961 l 3.2864,-7.80564 1.04711,9.98768 c 2.30912,1.07744 4.58631,1.98105 6.4646,2.41795 4.60666,1.07149 9.58286,1.07149 14.18953,0 1.88036,-0.43737 4.16072,-1.34286 6.47243,-2.42187 l 1.03929,-9.9148 3.26208,7.74922 c 4.33086,-2.31828 7.89109,-4.59215 7.89109,-4.59215 l 1.53149,-14.10487 c 5.05358,1.49896 9.73443,2.78553 14.38938,-0.12846 7.26665,-4.54926 6.39301,-18.32528 4.58901,-26.54262 -0.17472,-0.87976 -0.39077,-2.15849 -0.57684,-3.3052 4.47779,-8.3066 5.71921,-17.96746 5.71921,-27.881335 0,-7.50938 -1.77257,-14.16207 -4.90879,-19.867985 z M 122.2255,85.235042 90.118831,92.441096 c 0.07098,3.770651 0.34323,7.492637 0.928768,11.105364 z m -3.72843,27.638368 c 1.4992,0.0274 3.02979,0.32906 4.54592,0.94838 4.84288,1.9782 8.07059,6.3103 8.34253,11.04343 l 4.46205,1.08552 -7.71002,7.72961 c -3.48463,3.9857 -9.4377,5.47814 -14.75541,3.30598 -5.00312,-2.04369 -7.98162,-6.87634 -7.98435,-11.79428 l -3.74724,-0.91154 5.33753,-5.35085 a 1.9696945,1.8830999 12.1766 0 1 0.076,-0.10981 c 2.71731,-3.64723 6.93541,-6.02885 11.43297,-5.94652 z m 47.58316,0.0156 c 6.71035,0 12.81164,5.53123 12.81164,12.35391 0,6.82267 -2.89722,13.11571 -9.60756,13.11571 -6.71033,0 -20.70035,-6.29304 -20.70035,-13.11571 0,-6.82268 10.78594,-12.35391 17.49627,-12.35391 z m 4.03724,2.65072 c -0.78474,0 -1.3773,0.22845 -1.77682,0.68504 -0.39239,0.44944 -0.58862,1.07036 -0.58862,1.86225 v 3.9275 c 0,0.75623 0.20392,1.35874 0.61057,1.80819 0.40664,0.44944 0.99153,0.67405 1.75487,0.67405 0.74908,0 1.32707,-0.22461 1.73373,-0.67405 0.41377,-0.45659 0.61996,-1.0591 0.61996,-1.80819 v -3.9275 c 0,-0.79189 -0.19545,-1.41281 -0.58784,-1.86225 -0.39237,-0.45659 -0.98109,-0.68504 -1.76585,-0.68504 z m -10.77616,0.12847 c -0.19262,0.19976 -0.71695,0.52095 -1.57305,0.96327 v 1.32693 c 0.0784,-0.0428 0.17814,-0.0887 0.29941,-0.13877 0.12134,-0.0499 0.2102,-0.086 0.26728,-0.10739 0.3353,-0.14272 0.54226,-0.23543 0.62074,-0.27824 v 6.90196 h 1.78702 v -8.66781 z m -40.94221,0.94132 c -3.10843,-0.0769 -5.99869,1.59291 -8.12229,4.44323 a 1.9696945,1.8830999 12.1766 0 1 -0.22885,0.25396 l 1.70001,5.43001 -2.93683,-0.71402 c 0.30445,3.37308 2.4656,6.61162 5.84151,7.9906 4.39856,1.79671 9.32079,0.21655 11.6877,-3.50975 a 1.6883096,1.6140857 12.1766 0 1 0.0337,-0.0502 l -2.30667,-7.36829 3.26522,0.79398 c -0.5542,-2.82517 -2.64772,-5.31282 -5.77252,-6.58923 -1.06426,-0.43473 -2.12484,-0.65467 -3.16098,-0.68032 z m 51.71837,0.52513 c 0.23544,0 0.38105,0.0959 0.43813,0.28843 0.0641,0.18548 0.0965,0.4216 0.0965,0.70697 v 3.84129 c 0,0.2497 -0.0352,0.46741 -0.10662,0.6529 -0.0642,0.18548 -0.20679,0.27824 -0.42796,0.27824 -0.3567,0 -0.53532,-0.31047 -0.53532,-0.93114 v -3.84129 c 0,-0.2925 0.0284,-0.53167 0.0854,-0.71716 0.0642,-0.18549 0.21446,-0.27824 0.44989,-0.27824 z m -9.64203,8.48597 c -0.78476,0 -1.37653,0.22764 -1.77604,0.68423 -0.39237,0.44945 -0.58862,1.07037 -0.58862,1.86225 v 3.92752 c 0,0.75621 0.20313,1.35872 0.60977,1.80815 0.40665,0.44946 0.99153,0.67484 1.75489,0.67484 0.74908,0 1.32707,-0.22538 1.73371,-0.67484 0.41379,-0.45655 0.62076,-1.05906 0.62076,-1.80815 v -3.92752 c 0,-0.79188 -0.19625,-1.4128 -0.58862,-1.86225 -0.39238,-0.45659 -0.98109,-0.68423 -1.76585,-0.68423 z m 10.23065,0.12847 c -0.19263,0.19975 -0.71695,0.52015 -1.57304,0.96246 v 1.32694 c 0.0784,-0.0428 0.17812,-0.0887 0.2994,-0.13878 0.12134,-0.0499 0.2102,-0.086 0.26727,-0.10738 0.3353,-0.14273 0.54227,-0.23544 0.62076,-0.27824 v 6.90271 h 1.78701 v -8.66778 z m -10.23065,1.46565 c 0.23542,0 0.38184,0.0966 0.43892,0.28922 0.0642,0.18549 0.0965,0.42082 0.0965,0.70619 v 3.84129 c 0,0.2497 -0.0361,0.4674 -0.10738,0.65288 -0.0642,0.18549 -0.20679,0.27824 -0.42794,0.27824 -0.35671,0 -0.53532,-0.31045 -0.53532,-0.93112 v -3.84129 c 0,-0.29251 0.0291,-0.53168 0.0862,-0.71716 0.0642,-0.18549 0.21369,-0.27825 0.44911,-0.27825 z m -18.96429,3.34988 c 3.85384,0 10.79575,10.58156 10.79575,16.86609 0,4.74991 -6.85883,6.11033 -6.85883,6.11033 0,0 -2.68509,-4.12425 -3.78094,-4.12423 -1.11313,0 -3.8272,4.14147 -3.8272,4.14147 0,0 -7.12455,-1.25358 -7.12455,-6.12757 0,-6.7226 6.94193,-16.86608 10.79577,-16.86609 z"
    />
    </g>   
  </g>
</svg>
