<svg xmlns="http://www.w3.org/2000/svg" xml:space="preserve" width="656.78" height="315.07" viewBox="0 0 173.77 83.36">
  <style>
    .logo { 
      fill: #ffffff; 
      color: #ffffff;
    }

    @media (prefers-color-scheme: light) {
      .logo { 
        fill: #000000;
        color: #000000; 
      }
    }
  </style>
  <path class="logo" d="M64.52 37.53c-26.2 0-49.42 12.9-55.94 35.62l76.46-17.16 15.21-8.94c-9.96-6.21-22.46-9.52-35.73-9.52m52.26 26.64-26.19 5.88-78.31 46q.43.9.9 1.78c-.2 1.29-.45 2.72-.65 3.71-2.25 9.09-3.19 24.73 5.16 29.83 5.27 3.22 10.5 1.65 16.15-.05l1.74 16.04s3.98 2.55 8.84 5.15l3.7-8.77 1.17 11.22a40 40 0 0 0 7.26 2.72 36 36 0 0 0 15.95 0c2.11-.5 4.67-1.51 7.27-2.72l1.17-11.15 3.66 8.71c4.87-2.6 8.87-5.16 8.87-5.16l1.72-15.85c5.68 1.69 10.94 3.13 16.17-.14 8.16-5.11 7.18-20.6 5.16-29.83-.2-.99-.44-2.42-.65-3.71 5.03-9.33 6.42-20.19 6.42-31.33 0-8.44-1.99-15.91-5.51-22.32m-73.93 16.6-36.07 8.1c.08 4.23.38 8.41 1.04 12.47zm-4.19 31.05q2.54.03 5.11 1.07c5.44 2.22 9.07 7.09 9.38 12.4l5.01 1.23-8.66 8.68a14.7 14.7 0 0 1-16.58 3.72 14.4 14.4 0 0 1-8.97-13.26l-4.22-1.02 6-6.01a2.21 2.12 12.18 0 1 .09-.13c3.05-4.1 7.8-6.77 12.84-6.68m53.47.02c7.54 0 14.4 6.21 14.4 13.88s-3.26 14.74-10.8 14.74-23.26-7.07-23.26-14.74 12.12-13.88 19.66-13.88m4.54 2.98q-1.32 0-2 .77-.66.75-.66 2.09v4.41q0 1.28.69 2.04.68.75 1.97.75 1.26 0 1.95-.75.7-.78.7-2.04v-4.41q0-1.34-.67-2.1-.66-.76-1.98-.76m-12.11.14q-.32.35-1.77 1.08v1.5a4 4 0 0 1 .64-.28l.7-.31v7.75h2v-9.74zm-46 1.06c-3.5-.09-6.75 1.79-9.13 5a2.21 2.12 12.18 0 1-.26.28l1.91 6.1-3.3-.8a10.8 10.8 0 0 0 6.56 8.98c4.95 2.02 10.48.24 13.14-3.95a1.9 1.81 12.18 0 1 .04-.05l-2.6-8.28 3.67.89c-.62-3.18-2.97-5.97-6.48-7.4q-1.81-.74-3.56-.77m58.1.59q.4 0 .5.32t.1.8v4.31q0 .43-.11.74-.1.3-.48.31-.6 0-.6-1.05v-4.31q0-.5.1-.8.1-.33.5-.32m-10.83 9.54q-1.32 0-2 .76-.65.75-.65 2.1v4.41q0 1.28.68 2.03.7.76 1.97.76 1.28 0 1.95-.76.7-.77.7-2.03v-4.41q0-1.35-.66-2.1-.66-.76-1.99-.76m11.5.14q-.32.33-1.77 1.08v1.5a4 4 0 0 1 .64-.28q.56-.24.7-.32v7.76h2v-9.74zm-11.5 1.65q.4 0 .5.32.1.31.1.8v4.31q0 .42-.11.74-.12.3-.49.3-.6 0-.6-1.04v-4.31q0-.5.1-.81.1-.3.5-.31m-21.3 3.76c4.33 0 12.13 11.9 12.13 18.95 0 5.34-7.71 6.87-7.71 6.87s-3.02-4.64-4.25-4.64c-1.25 0-4.3 4.66-4.3 4.66s-8-1.41-8-6.89c0-7.55 7.8-18.95 12.12-18.95" style="display:inline;fill-opacity:1;stroke-width:4.5092" transform="translate(-3.97 -21.7)scale(.5861)"/>
  
  <text xml:space="preserve" x="148.68" y="78.77" style="font-style:normal;font-variant:normal;font-weight:700;font-stretch:normal;font-size:52.2662px;line-height:.9;font-family:Oswald;-inkscape-font-specification:&quot;Oswald Bold&quot;;text-align:start;writing-mode:lr-tb;direction:ltr;text-anchor:start;display:inline;fill-opacity:1;stroke-width:0;stroke-dasharray:none;stroke-opacity:1" transform="matrix(.5677 0 0 .6051 -3.97 -21.7)">
    <tspan class="logo" x="148.68" y="78.77" style="fill-opacity:1;stroke-width:0">HACK</tspan>
    <tspan class="logo" x="148.68" y="125.81" style="fill-opacity:1;stroke-width:0">PATCH</tspan>
    <tspan class="logo" x="148.68" y="172.85" style="fill-opacity:1;stroke-width:0">RELOAD</tspan>
  </text>
</svg>